<svg xmlns="http://www.w3.org/2000/svg" xmlns:xlink="http://www.w3.org/1999/xlink" contentStyleType="text/css" height="1254px" preserveAspectRatio="none" style="width:3023px;height:1254px;background:#FFFFFF;" version="1.1" viewBox="0 0 3023 1254" width="3023px" zoomAndPan="magnify"><defs/><g><rect fill="none" height="254.8672" style="stroke:#000000;stroke-width:1.5;" width="1324.5" x="634" y="353.4297"/><rect fill="none" height="461.7969" style="stroke:#000000;stroke-width:1.5;" width="1768.5" x="1238" y="694.5625"/><rect fill="none" height="207.7344" style="stroke:#000000;stroke-width:1.5;" width="739.5" x="1852" y="747.8281"/><rect fill="none" height="74.3984" style="stroke:#000000;stroke-width:1.5;" width="352" x="1862" y="845.0313"/><line style="stroke:#181818;stroke-width:0.5;stroke-dasharray:5.0,5.0;" x1="139" x2="139" y1="81.2969" y2="1173.3594"/><line style="stroke:#181818;stroke-width:0.5;stroke-dasharray:5.0,5.0;" x1="262" x2="262" y1="81.2969" y2="1173.3594"/><line style="stroke:#181818;stroke-width:0.5;stroke-dasharray:5.0,5.0;" x1="396" x2="396" y1="81.2969" y2="1173.3594"/><line style="stroke:#181818;stroke-width:0.5;stroke-dasharray:5.0,5.0;" x1="691" x2="691" y1="81.2969" y2="1173.3594"/><line style="stroke:#181818;stroke-width:0.5;stroke-dasharray:5.0,5.0;" x1="1302" x2="1302" y1="81.2969" y2="1173.3594"/><line style="stroke:#181818;stroke-width:0.5;stroke-dasharray:5.0,5.0;" x1="1953" x2="1953" y1="81.2969" y2="1173.3594"/><line style="stroke:#181818;stroke-width:0.5;stroke-dasharray:5.0,5.0;" x1="2526.5" x2="2526.5" y1="81.2969" y2="1173.3594"/><text fill="#000000" font-family="sans-serif" font-size="14" lengthAdjust="spacing" textLength="93" x="90" y="77.9951">Source_Basic</text><ellipse cx="139.5" cy="13.5" fill="#E2E2F0" rx="8" ry="8" style="stroke:#181818;stroke-width:0.5;"/><path d="M139.5,21.5 L139.5,48.5 M126.5,29.5 L152.5,29.5 M139.5,48.5 L126.5,63.5 M139.5,48.5 L152.5,63.5 " fill="none" style="stroke:#181818;stroke-width:0.5;"/><text fill="#000000" font-family="sans-serif" font-size="14" lengthAdjust="spacing" textLength="93" x="90" y="1185.3545">Source_Basic</text><ellipse cx="139.5" cy="1197.1563" fill="#E2E2F0" rx="8" ry="8" style="stroke:#181818;stroke-width:0.5;"/><path d="M139.5,1205.1563 L139.5,1232.1563 M126.5,1213.1563 L152.5,1213.1563 M139.5,1232.1563 L126.5,1247.1563 M139.5,1232.1563 L152.5,1247.1563 " fill="none" style="stroke:#181818;stroke-width:0.5;"/><text fill="#000000" font-family="sans-serif" font-size="14" lengthAdjust="spacing" textLength="120" x="199" y="77.9951">Source_Business</text><ellipse cx="262" cy="13.5" fill="#E2E2F0" rx="8" ry="8" style="stroke:#181818;stroke-width:0.5;"/><path d="M262,21.5 L262,48.5 M249,29.5 L275,29.5 M262,48.5 L249,63.5 M262,48.5 L275,63.5 " fill="none" style="stroke:#181818;stroke-width:0.5;"/><text fill="#000000" font-family="sans-serif" font-size="14" lengthAdjust="spacing" textLength="120" x="199" y="1185.3545">Source_Business</text><ellipse cx="262" cy="1197.1563" fill="#E2E2F0" rx="8" ry="8" style="stroke:#181818;stroke-width:0.5;"/><path d="M262,1205.1563 L262,1232.1563 M249,1213.1563 L275,1213.1563 M262,1232.1563 L249,1247.1563 M262,1232.1563 L275,1247.1563 " fill="none" style="stroke:#181818;stroke-width:0.5;"/><text fill="#000000" font-family="sans-serif" font-size="14" lengthAdjust="spacing" textLength="117" x="335" y="77.9951">Source_Premium</text><ellipse cx="396.5" cy="13.5" fill="#E2E2F0" rx="8" ry="8" style="stroke:#181818;stroke-width:0.5;"/><path d="M396.5,21.5 L396.5,48.5 M383.5,29.5 L409.5,29.5 M396.5,48.5 L383.5,63.5 M396.5,48.5 L409.5,63.5 " fill="none" style="stroke:#181818;stroke-width:0.5;"/><text fill="#000000" font-family="sans-serif" font-size="14" lengthAdjust="spacing" textLength="117" x="335" y="1185.3545">Source_Premium</text><ellipse cx="396.5" cy="1197.1563" fill="#E2E2F0" rx="8" ry="8" style="stroke:#181818;stroke-width:0.5;"/><path d="M396.5,1205.1563 L396.5,1232.1563 M383.5,1213.1563 L409.5,1213.1563 M396.5,1232.1563 L383.5,1247.1563 M396.5,1232.1563 L409.5,1247.1563 " fill="none" style="stroke:#181818;stroke-width:0.5;"/><text fill="#000000" font-family="sans-serif" font-size="14" lengthAdjust="spacing" textLength="89" x="644" y="77.9951">TicketRouter</text><ellipse cx="691.5" cy="49" fill="#E2E2F0" rx="12" ry="12" style="stroke:#181818;stroke-width:0.5;"/><polygon fill="#181818" points="687.5,37,693.5,32,691.5,37,693.5,42,687.5,37" style="stroke:#181818;stroke-width:1.0;"/><text fill="#000000" font-family="sans-serif" font-size="14" lengthAdjust="spacing" textLength="89" x="644" y="1185.3545">TicketRouter</text><ellipse cx="691.5" cy="1204.6563" fill="#E2E2F0" rx="12" ry="12" style="stroke:#181818;stroke-width:0.5;"/><polygon fill="#181818" points="687.5,1192.6563,693.5,1187.6563,691.5,1192.6563,693.5,1197.6563,687.5,1192.6563" style="stroke:#181818;stroke-width:1.0;"/><path d="M1253,55 L1352,55 C1357,55 1357,68.1484 1357,68.1484 C1357,68.1484 1357,81.2969 1352,81.2969 L1253,81.2969 C1248,81.2969 1248,68.1484 1248,68.1484 C1248,68.1484 1248,55 1253,55 " fill="#E2E2F0" style="stroke:#181818;stroke-width:0.5;"/><path d="M1352,55 C1347,55 1347,68.1484 1347,68.1484 C1347,81.2969 1352,81.2969 1352,81.2969 " fill="none" style="stroke:#181818;stroke-width:0.5;"/><text fill="#000000" font-family="sans-serif" font-size="14" lengthAdjust="spacing" textLength="89" x="1253" y="72.9951">TicketQueue</text><path d="M1253,1172.3594 L1352,1172.3594 C1357,1172.3594 1357,1185.5078 1357,1185.5078 C1357,1185.5078 1357,1198.6563 1352,1198.6563 L1253,1198.6563 C1248,1198.6563 1248,1185.5078 1248,1185.5078 C1248,1185.5078 1248,1172.3594 1253,1172.3594 " fill="#E2E2F0" style="stroke:#181818;stroke-width:0.5;"/><path d="M1352,1172.3594 C1347,1172.3594 1347,1185.5078 1347,1185.5078 C1347,1198.6563 1352,1198.6563 1352,1198.6563 " fill="none" style="stroke:#181818;stroke-width:0.5;"/><text fill="#000000" font-family="sans-serif" font-size="14" lengthAdjust="spacing" textLength="89" x="1253" y="1190.3545">TicketQueue</text><text fill="#000000" font-family="sans-serif" font-size="14" lengthAdjust="spacing" textLength="157" x="1872" y="77.9951">AssignmentDispatcher</text><ellipse cx="1953.5" cy="49" fill="#E2E2F0" rx="12" ry="12" style="stroke:#181818;stroke-width:0.5;"/><polygon fill="#181818" points="1949.5,37,1955.5,32,1953.5,37,1955.5,42,1949.5,37" style="stroke:#181818;stroke-width:1.0;"/><text fill="#000000" font-family="sans-serif" font-size="14" lengthAdjust="spacing" textLength="157" x="1872" y="1185.3545">AssignmentDispatcher</text><ellipse cx="1953.5" cy="1204.6563" fill="#E2E2F0" rx="12" ry="12" style="stroke:#181818;stroke-width:0.5;"/><polygon fill="#181818" points="1949.5,1192.6563,1955.5,1187.6563,1953.5,1192.6563,1955.5,1197.6563,1949.5,1192.6563" style="stroke:#181818;stroke-width:1.0;"/><rect fill="#E2E2F0" height="30.2969" rx="2.5" ry="2.5" style="stroke:#181818;stroke-width:0.5;" width="110" x="2471.5" y="50"/><text fill="#000000" font-family="sans-serif" font-size="14" lengthAdjust="spacing" textLength="96" x="2478.5" y="69.9951">SupportAgent</text><rect fill="#E2E2F0" height="30.2969" rx="2.5" ry="2.5" style="stroke:#181818;stroke-width:0.5;" width="110" x="2471.5" y="1172.3594"/><text fill="#000000" font-family="sans-serif" font-size="14" lengthAdjust="spacing" textLength="96" x="2478.5" y="1192.3545">SupportAgent</text><path d="M5,96.2969 L5,181.2969 L531,181.2969 L531,106.2969 L521,96.2969 L5,96.2969 " fill="#FEFFDD" style="stroke:#181818;stroke-width:0.5;"/><path d="M521,96.2969 L521,106.2969 L531,106.2969 L521,96.2969 " fill="#FEFFDD" style="stroke:#181818;stroke-width:0.5;"/><text fill="#000000" font-family="sans-serif" font-size="13" lengthAdjust="spacing" textLength="419" x="11" y="113.3638">&#1048;&#1089;&#1090;&#1086;&#1095;&#1085;&#1080;&#1082;&#1080; (&#1048;&#1041;) &#8212; &#1073;&#1077;&#1089;&#1082;&#1086;&#1085;&#1077;&#1095;&#1085;&#1099;&#1077; &#1087;&#1086;&#1090;&#1086;&#1082;&#1080; &#1086;&#1073;&#1088;&#1072;&#1097;&#1077;&#1085;&#1080;&#1081; &#1082;&#1083;&#1080;&#1077;&#1085;&#1090;&#1086;&#1074;</text><text fill="#000000" font-family="sans-serif" font-size="13" lengthAdjust="spacing" textLength="241" x="11" y="128.4966">&#1090;&#1072;&#1088;&#1080;&#1092;&#1086;&#1074; Basic / Business / Premium.</text><text fill="#000000" font-family="sans-serif" font-size="13" lengthAdjust="spacing" textLength="403" x="11" y="143.6294">&#1048;&#1085;&#1090;&#1077;&#1088;&#1074;&#1072;&#1083; &#1084;&#1077;&#1078;&#1076;&#1091; &#1086;&#1073;&#1088;&#1072;&#1097;&#1077;&#1085;&#1080;&#1103;&#1084;&#1080; &#1082;&#1072;&#1078;&#1076;&#1086;&#1075;&#1086; &#1080;&#1089;&#1090;&#1086;&#1095;&#1085;&#1080;&#1082;&#1072; &#8212; &#1048;&#1047;2</text><text fill="#000000" font-family="sans-serif" font-size="13" lengthAdjust="spacing" textLength="224" x="11" y="158.7622">(&#1088;&#1072;&#1074;&#1085;&#1086;&#1084;&#1077;&#1088;&#1085;&#1099;&#1081; &#1079;&#1072;&#1082;&#1086;&#1085; &#1075;&#1077;&#1085;&#1077;&#1088;&#1072;&#1094;&#1080;&#1080;).</text><text fill="#000000" font-family="sans-serif" font-size="13" lengthAdjust="spacing" textLength="505" x="11" y="173.895">&#1055;&#1088;&#1080;&#1086;&#1088;&#1080;&#1090;&#1077;&#1090; &#1080;&#1089;&#1090;&#1086;&#1095;&#1085;&#1080;&#1082;&#1072; &#1087;&#1088;&#1080; &#1074;&#1099;&#1073;&#1086;&#1088;&#1077; &#1080;&#1079; &#1073;&#1091;&#1092;&#1077;&#1088;&#1072;: Premium &gt; Business &gt; Basic.</text><rect fill="#EEEEEE" height="3" style="stroke:#EEEEEE;stroke-width:1.0;" width="3016.5" x="0" y="207.5273"/><line style="stroke:#000000;stroke-width:1.0;" x1="0" x2="3016.5" y1="207.5273" y2="207.5273"/><line style="stroke:#000000;stroke-width:1.0;" x1="0" x2="3016.5" y1="210.5273" y2="210.5273"/><rect fill="#EEEEEE" height="23.1328" style="stroke:#000000;stroke-width:2.0;" width="223" x="1396.75" y="196.9609"/><text fill="#000000" font-family="sans-serif" font-size="13" font-weight="bold" lengthAdjust="spacing" textLength="204" x="1402.75" y="213.0278">&#1055;&#1086;&#1089;&#1090;&#1091;&#1087;&#1083;&#1077;&#1085;&#1080;&#1077; &#1085;&#1086;&#1074;&#1086;&#1081; &#1079;&#1072;&#1103;&#1074;&#1082;&#1080;</text><polygon fill="#181818" points="679.5,247.2266,689.5,251.2266,679.5,255.2266,683.5,251.2266" style="stroke:#181818;stroke-width:1.0;"/><line style="stroke:#181818;stroke-width:1.0;" x1="396.5" x2="685.5" y1="251.2266" y2="251.2266"/><text fill="#000000" font-family="sans-serif" font-size="13" lengthAdjust="spacing" textLength="271" x="403.5" y="246.1606">&#1053;&#1086;&#1074;&#1099;&#1081; &#1090;&#1080;&#1082;&#1077;&#1090; (&#1082;&#1083;&#1080;&#1077;&#1085;&#1090; &#1090;&#1072;&#1088;&#1080;&#1092;&#1072; Premium)</text><rect fill="none" height="53.0703" style="stroke:#000000;stroke-width:1.5;" width="363" x="641" y="259.2266"/><path d="M641,259.2266 L707,259.2266 L707,266.2266 L697,276.2266 L641,276.2266 L641,259.2266 " fill="#EEEEEE" style="stroke:#000000;stroke-width:2.0;"/><text fill="#000000" font-family="sans-serif" font-size="13" font-weight="bold" lengthAdjust="spacing" textLength="21" x="654" y="273.2935">ref</text><text fill="#000000" font-family="sans-serif" font-size="12" lengthAdjust="spacing" textLength="355" x="645" y="291.3652">&#1056;&#1077;&#1075;&#1080;&#1089;&#1090;&#1088;&#1072;&#1094;&#1080;&#1103; &#1079;&#1072;&#1103;&#1074;&#1082;&#1080;: &#1074;&#1088;&#1077;&#1084;&#1103; &#1075;&#1077;&#1085;&#1077;&#1088;&#1072;&#1094;&#1080;&#1080;, id &#1080;&#1089;&#1090;&#1086;&#1095;&#1085;&#1080;&#1082;&#1072;,</text><text fill="#000000" font-family="sans-serif" font-size="12" lengthAdjust="spacing" textLength="311" x="667" y="305.334">&#1087;&#1088;&#1080;&#1086;&#1088;&#1080;&#1090;&#1077;&#1090; &#1090;&#1072;&#1088;&#1080;&#1092;&#1072; (&#1089;&#1084;. &#1079;&#1072;&#1082;&#1086;&#1085; &#1075;&#1077;&#1085;&#1077;&#1088;&#1072;&#1094;&#1080;&#1080; &#1048;&#1047;2)</text><polygon fill="#181818" points="1290.5,334.4297,1300.5,338.4297,1290.5,342.4297,1294.5,338.4297" style="stroke:#181818;stroke-width:1.0;"/><line style="stroke:#181818;stroke-width:1.0;" x1="691.5" x2="1296.5" y1="338.4297" y2="338.4297"/><text fill="#000000" font-family="sans-serif" font-size="13" lengthAdjust="spacing" textLength="587" x="698.5" y="333.3638">&#1055;&#1086;&#1080;&#1089;&#1082; &#1089;&#1074;&#1086;&#1073;&#1086;&#1076;&#1085;&#1086;&#1075;&#1086; &#1089;&#1083;&#1086;&#1090;&#1072; (&#1044;1&#1054;&#1047;1 &#8212; &#1087;&#1086;&#1089;&#1090;&#1072;&#1085;&#1086;&#1074;&#1082;&#1072; "&#1087;&#1086; &#1082;&#1086;&#1083;&#1100;&#1094;&#1091;" &#1086;&#1090; &#1091;&#1082;&#1072;&#1079;&#1072;&#1090;&#1077;&#1083;&#1103; QUEUE_PTR)</text><path d="M634,353.4297 L698,353.4297 L698,360.5625 L688,370.5625 L634,370.5625 L634,353.4297 " fill="#EEEEEE" style="stroke:#000000;stroke-width:1.5;"/><rect fill="none" height="254.8672" style="stroke:#000000;stroke-width:1.5;" width="1324.5" x="634" y="353.4297"/><text fill="#000000" font-family="sans-serif" font-size="13" font-weight="bold" lengthAdjust="spacing" textLength="19" x="649" y="366.4966">alt</text><text fill="#000000" font-family="sans-serif" font-size="11" font-weight="bold" lengthAdjust="spacing" textLength="186" x="713" y="365.6401">[&#1057;&#1074;&#1086;&#1073;&#1086;&#1076;&#1085;&#1086;&#1077; &#1084;&#1077;&#1089;&#1090;&#1086; &#1085;&#1072;&#1081;&#1076;&#1077;&#1085;&#1086;]</text><polygon fill="#181818" points="702.5,387.6953,692.5,391.6953,702.5,395.6953,698.5,391.6953" style="stroke:#181818;stroke-width:1.0;"/><line style="stroke:#181818;stroke-width:1.0;stroke-dasharray:2.0,2.0;" x1="696.5" x2="1301.5" y1="391.6953" y2="391.6953"/><text fill="#000000" font-family="sans-serif" font-size="13" lengthAdjust="spacing" textLength="159" x="708.5" y="386.6294">&#1052;&#1077;&#1089;&#1090;&#1086; &#1085;&#1072;&#1081;&#1076;&#1077;&#1085;&#1086;, &#1089;&#1083;&#1086;&#1090; N</text><polygon fill="#181818" points="1290.5,416.8281,1300.5,420.8281,1290.5,424.8281,1294.5,420.8281" style="stroke:#181818;stroke-width:1.0;"/><line style="stroke:#181818;stroke-width:1.0;" x1="691.5" x2="1296.5" y1="420.8281" y2="420.8281"/><text fill="#000000" font-family="sans-serif" font-size="13" lengthAdjust="spacing" textLength="406" x="698.5" y="415.7622">&#1055;&#1086;&#1089;&#1090;&#1072;&#1085;&#1086;&#1074;&#1082;&#1072; &#1079;&#1072;&#1103;&#1074;&#1082;&#1080; &#1074; &#1089;&#1083;&#1086;&#1090; N, &#1091;&#1082;&#1072;&#1079;&#1072;&#1090;&#1077;&#1083;&#1100; QUEUE_PTR -&gt; N+1</text><path d="M1307,433.8281 L1307,458.8281 L1527,458.8281 L1527,443.8281 L1517,433.8281 L1307,433.8281 " fill="#FEFFDD" style="stroke:#181818;stroke-width:0.5;"/><path d="M1517,433.8281 L1517,443.8281 L1527,443.8281 L1517,433.8281 " fill="#FEFFDD" style="stroke:#181818;stroke-width:0.5;"/><text fill="#000000" font-family="sans-serif" font-size="13" lengthAdjust="spacing" textLength="199" x="1313" y="450.895">&#1055;&#1086;&#1089;&#1090;&#1072;&#1085;&#1086;&#1074;&#1082;&#1072; &#1074; &#1073;&#1091;&#1092;&#1077;&#1088; (&#1044;1&#1054;&#1047;1)</text><line style="stroke:#000000;stroke-width:1.0;stroke-dasharray:2.0,2.0;" x1="634" x2="1958.5" y1="464.9609" y2="464.9609"/><text fill="#000000" font-family="sans-serif" font-size="11" font-weight="bold" lengthAdjust="spacing" textLength="507" x="639" y="475.1714">[&#1041;&#1091;&#1092;&#1077;&#1088; &#1087;&#1077;&#1088;&#1077;&#1087;&#1086;&#1083;&#1085;&#1077;&#1085;: &#1091;&#1082;&#1072;&#1079;&#1072;&#1090;&#1077;&#1083;&#1100; &#1086;&#1073;&#1086;&#1096;&#1105;&#1083; &#1074;&#1089;&#1102; &#1086;&#1095;&#1077;&#1088;&#1077;&#1076;&#1100;, &#1089;&#1074;&#1086;&#1073;&#1086;&#1076;&#1085;&#1086;&#1075;&#1086; &#1084;&#1077;&#1089;&#1090;&#1072; &#1085;&#1077;&#1090;]</text><polygon fill="#181818" points="702.5,495.8984,692.5,499.8984,702.5,503.8984,698.5,499.8984" style="stroke:#181818;stroke-width:1.0;"/><line style="stroke:#181818;stroke-width:1.0;stroke-dasharray:2.0,2.0;" x1="696.5" x2="1301.5" y1="499.8984" y2="499.8984"/><text fill="#000000" font-family="sans-serif" font-size="13" lengthAdjust="spacing" textLength="142" x="708.5" y="494.8325">&#1057;&#1074;&#1086;&#1073;&#1086;&#1076;&#1085;&#1099;&#1093; &#1084;&#1077;&#1089;&#1090; &#1085;&#1077;&#1090;</text><polygon fill="#181818" points="1290.5,525.0313,1300.5,529.0313,1290.5,533.0313,1294.5,529.0313" style="stroke:#181818;stroke-width:1.0;"/><line style="stroke:#181818;stroke-width:1.0;" x1="691.5" x2="1296.5" y1="529.0313" y2="529.0313"/><text fill="#000000" font-family="sans-serif" font-size="13" lengthAdjust="spacing" textLength="457" x="698.5" y="523.9653">&#1054;&#1090;&#1082;&#1072;&#1079; &#1079;&#1072;&#1103;&#1074;&#1082;&#1080;, &#1089;&#1090;&#1086;&#1103;&#1097;&#1077;&#1081; &#1085;&#1072; &#1087;&#1086;&#1079;&#1080;&#1094;&#1080;&#1080; &#1091;&#1082;&#1072;&#1079;&#1072;&#1090;&#1077;&#1083;&#1103; QUEUE_PTR (&#1044;1&#1054;&#1054;1)</text><line style="stroke:#181818;stroke-width:1.0;" x1="1302.5" x2="1344.5" y1="558.1641" y2="558.1641"/><line style="stroke:#181818;stroke-width:1.0;" x1="1344.5" x2="1344.5" y1="558.1641" y2="571.1641"/><line style="stroke:#181818;stroke-width:1.0;" x1="1303.5" x2="1344.5" y1="571.1641" y2="571.1641"/><polygon fill="#181818" points="1313.5,567.1641,1303.5,571.1641,1313.5,575.1641,1309.5,571.1641" style="stroke:#181818;stroke-width:1.0;"/><text fill="#000000" font-family="sans-serif" font-size="13" lengthAdjust="spacing" textLength="637" x="1309.5" y="553.0981">&#1047;&#1072;&#1103;&#1074;&#1082;&#1072; &#1085;&#1072; &#1087;&#1086;&#1079;&#1080;&#1094;&#1080;&#1080; QUEUE_PTR &#1079;&#1072;&#1082;&#1088;&#1099;&#1074;&#1072;&#1077;&#1090;&#1089;&#1103; &#1082;&#1072;&#1082; &#1085;&#1077;&#1086;&#1073;&#1088;&#1072;&#1073;&#1086;&#1090;&#1072;&#1085;&#1085;&#1072;&#1103; (&#1085;&#1077;&#1079;&#1072;&#1074;&#1080;&#1089;&#1080;&#1084;&#1086; &#1086;&#1090; &#1077;&#1105; &#1090;&#1072;&#1088;&#1080;&#1092;&#1072;)</text><polygon fill="#181818" points="1290.5,596.2969,1300.5,600.2969,1290.5,604.2969,1294.5,600.2969" style="stroke:#181818;stroke-width:1.0;"/><line style="stroke:#181818;stroke-width:1.0;" x1="691.5" x2="1296.5" y1="600.2969" y2="600.2969"/><text fill="#000000" font-family="sans-serif" font-size="13" lengthAdjust="spacing" textLength="563" x="698.5" y="595.231">&#1055;&#1086;&#1089;&#1090;&#1072;&#1085;&#1086;&#1074;&#1082;&#1072; &#1085;&#1086;&#1074;&#1086;&#1081; &#1079;&#1072;&#1103;&#1074;&#1082;&#1080; &#1085;&#1072; &#1086;&#1089;&#1074;&#1086;&#1073;&#1086;&#1076;&#1080;&#1074;&#1096;&#1077;&#1077;&#1089;&#1103; &#1084;&#1077;&#1089;&#1090;&#1086;, QUEUE_PTR -&gt; QUEUE_PTR+1</text><rect fill="#EEEEEE" height="3" style="stroke:#EEEEEE;stroke-width:1.0;" width="3016.5" x="0" y="635.8633"/><line style="stroke:#000000;stroke-width:1.0;" x1="0" x2="3016.5" y1="635.8633" y2="635.8633"/><line style="stroke:#000000;stroke-width:1.0;" x1="0" x2="3016.5" y1="638.8633" y2="638.8633"/><rect fill="#EEEEEE" height="23.1328" style="stroke:#000000;stroke-width:2.0;" width="284" x="1366.25" y="625.2969"/><text fill="#000000" font-family="sans-serif" font-size="13" font-weight="bold" lengthAdjust="spacing" textLength="265" x="1372.25" y="641.3638">&#1054;&#1073;&#1088;&#1072;&#1073;&#1086;&#1090;&#1082;&#1072; &#1089;&#1086;&#1086;&#1073;&#1097;&#1077;&#1085;&#1080;&#1103; &#1080;&#1079; &#1086;&#1095;&#1077;&#1088;&#1077;&#1076;&#1080;</text><polygon fill="#181818" points="1941.5,675.5625,1951.5,679.5625,1941.5,683.5625,1945.5,679.5625" style="stroke:#181818;stroke-width:1.0;"/><line style="stroke:#181818;stroke-width:1.0;" x1="1302.5" x2="1947.5" y1="679.5625" y2="679.5625"/><text fill="#000000" font-family="sans-serif" font-size="13" lengthAdjust="spacing" textLength="314" x="1309.5" y="674.4966">&#1057;&#1086;&#1073;&#1099;&#1090;&#1080;&#1077; "&#1074; &#1086;&#1095;&#1077;&#1088;&#1077;&#1076;&#1080; &#1087;&#1086;&#1103;&#1074;&#1080;&#1083;&#1072;&#1089;&#1100; &#1085;&#1086;&#1074;&#1072;&#1103; &#1079;&#1072;&#1103;&#1074;&#1082;&#1072;"</text><path d="M1238,694.5625 L1315,694.5625 L1315,701.6953 L1305,711.6953 L1238,711.6953 L1238,694.5625 " fill="#EEEEEE" style="stroke:#000000;stroke-width:1.5;"/><rect fill="none" height="461.7969" style="stroke:#000000;stroke-width:1.5;" width="1768.5" x="1238" y="694.5625"/><text fill="#000000" font-family="sans-serif" font-size="13" font-weight="bold" lengthAdjust="spacing" textLength="32" x="1253" y="707.6294">loop</text><text fill="#000000" font-family="sans-serif" font-size="11" font-weight="bold" lengthAdjust="spacing" textLength="309" x="1330" y="706.7729">[&#1055;&#1086;&#1082;&#1072; &#1077;&#1089;&#1090;&#1100; &#1085;&#1077;&#1086;&#1073;&#1088;&#1072;&#1073;&#1086;&#1090;&#1072;&#1085;&#1085;&#1099;&#1077; &#1079;&#1072;&#1103;&#1074;&#1082;&#1080; &#1074; &#1086;&#1095;&#1077;&#1088;&#1077;&#1076;&#1080;]</text><polygon fill="#181818" points="2514.5,728.8281,2524.5,732.8281,2514.5,736.8281,2518.5,732.8281" style="stroke:#181818;stroke-width:1.0;"/><line style="stroke:#181818;stroke-width:1.0;" x1="1953.5" x2="2520.5" y1="732.8281" y2="732.8281"/><text fill="#000000" font-family="sans-serif" font-size="13" lengthAdjust="spacing" textLength="514" x="1960.5" y="727.7622">&#1055;&#1086;&#1080;&#1089;&#1082; &#1089;&#1074;&#1086;&#1073;&#1086;&#1076;&#1085;&#1086;&#1075;&#1086; &#1086;&#1087;&#1077;&#1088;&#1072;&#1090;&#1086;&#1088;&#1072; (&#1044;2&#1055;2 &#8212; &#1087;&#1086; &#1082;&#1086;&#1083;&#1100;&#1094;&#1091; &#1086;&#1090; &#1091;&#1082;&#1072;&#1079;&#1072;&#1090;&#1077;&#1083;&#1103; AGENT_PTR)</text><path d="M1852,747.8281 L1916,747.8281 L1916,754.9609 L1906,764.9609 L1852,764.9609 L1852,747.8281 " fill="#EEEEEE" style="stroke:#000000;stroke-width:1.5;"/><rect fill="none" height="207.7344" style="stroke:#000000;stroke-width:1.5;" width="739.5" x="1852" y="747.8281"/><text fill="#000000" font-family="sans-serif" font-size="13" font-weight="bold" lengthAdjust="spacing" textLength="19" x="1867" y="760.895">alt</text><text fill="#000000" font-family="sans-serif" font-size="11" font-weight="bold" lengthAdjust="spacing" textLength="181" x="1931" y="760.0386">[&#1054;&#1087;&#1077;&#1088;&#1072;&#1090;&#1086;&#1088; &#1089;&#1074;&#1086;&#1073;&#1086;&#1076;&#1077;&#1085; &#1089;&#1088;&#1072;&#1079;&#1091;]</text><polygon fill="#181818" points="1964.5,782.0938,1954.5,786.0938,1964.5,790.0938,1960.5,786.0938" style="stroke:#181818;stroke-width:1.0;"/><line style="stroke:#181818;stroke-width:1.0;stroke-dasharray:2.0,2.0;" x1="1958.5" x2="2525.5" y1="786.0938" y2="786.0938"/><text fill="#000000" font-family="sans-serif" font-size="13" lengthAdjust="spacing" textLength="194" x="1970.5" y="781.0278">&#1054;&#1087;&#1077;&#1088;&#1072;&#1090;&#1086;&#1088; &#1089;&#1074;&#1086;&#1073;&#1086;&#1076;&#1077;&#1085; (&#1089;&#1083;&#1086;&#1090; K)</text><line style="stroke:#000000;stroke-width:1.0;stroke-dasharray:2.0,2.0;" x1="1852" x2="2591.5" y1="795.0938" y2="795.0938"/><text fill="#000000" font-family="sans-serif" font-size="11" font-weight="bold" lengthAdjust="spacing" textLength="159" x="1857" y="805.3042">[&#1042;&#1089;&#1077; &#1086;&#1087;&#1077;&#1088;&#1072;&#1090;&#1086;&#1088;&#1099; &#1079;&#1072;&#1085;&#1103;&#1090;&#1099;]</text><polygon fill="#181818" points="1964.5,826.0313,1954.5,830.0313,1964.5,834.0313,1960.5,830.0313" style="stroke:#181818;stroke-width:1.0;"/><line style="stroke:#181818;stroke-width:1.0;stroke-dasharray:2.0,2.0;" x1="1958.5" x2="2525.5" y1="830.0313" y2="830.0313"/><text fill="#000000" font-family="sans-serif" font-size="13" lengthAdjust="spacing" textLength="190" x="1970.5" y="824.9653">&#1057;&#1074;&#1086;&#1073;&#1086;&#1076;&#1085;&#1099;&#1093; &#1086;&#1087;&#1077;&#1088;&#1072;&#1090;&#1086;&#1088;&#1086;&#1074; &#1085;&#1077;&#1090;</text><path d="M1862,845.0313 L1939,845.0313 L1939,852.1641 L1929,862.1641 L1862,862.1641 L1862,845.0313 " fill="#EEEEEE" style="stroke:#000000;stroke-width:1.5;"/><rect fill="none" height="74.3984" style="stroke:#000000;stroke-width:1.5;" width="352" x="1862" y="845.0313"/><text fill="#000000" font-family="sans-serif" font-size="13" font-weight="bold" lengthAdjust="spacing" textLength="32" x="1877" y="858.0981">loop</text><text fill="#000000" font-family="sans-serif" font-size="11" font-weight="bold" lengthAdjust="spacing" textLength="255" x="1954" y="857.2417">[&#1054;&#1078;&#1080;&#1076;&#1072;&#1085;&#1080;&#1077; &#1086;&#1089;&#1074;&#1086;&#1073;&#1086;&#1078;&#1076;&#1077;&#1085;&#1080;&#1103; &#1086;&#1087;&#1077;&#1088;&#1072;&#1090;&#1086;&#1088;&#1072;]</text><line style="stroke:#181818;stroke-width:1.0;" x1="1953.5" x2="1995.5" y1="898.4297" y2="898.4297"/><line style="stroke:#181818;stroke-width:1.0;" x1="1995.5" x2="1995.5" y1="898.4297" y2="911.4297"/><line style="stroke:#181818;stroke-width:1.0;" x1="1954.5" x2="1995.5" y1="911.4297" y2="911.4297"/><polygon fill="#181818" points="1964.5,907.4297,1954.5,911.4297,1964.5,915.4297,1960.5,911.4297" style="stroke:#181818;stroke-width:1.0;"/><text fill="#000000" font-family="sans-serif" font-size="13" lengthAdjust="spacing" textLength="127" x="1960.5" y="878.231">&#1055;&#1088;&#1086;&#1074;&#1077;&#1088;&#1082;&#1072; &#1089;&#1086;&#1073;&#1099;&#1090;&#1080;&#1103;</text><text fill="#000000" font-family="sans-serif" font-size="13" lengthAdjust="spacing" textLength="167" x="1960.5" y="893.3638">"&#1086;&#1087;&#1077;&#1088;&#1072;&#1090;&#1086;&#1088; &#1086;&#1089;&#1074;&#1086;&#1073;&#1086;&#1076;&#1080;&#1083;&#1089;&#1103;"</text><polygon fill="#181818" points="1964.5,943.5625,1954.5,947.5625,1964.5,951.5625,1960.5,947.5625" style="stroke:#181818;stroke-width:1.0;"/><line style="stroke:#181818;stroke-width:1.0;stroke-dasharray:2.0,2.0;" x1="1958.5" x2="2525.5" y1="947.5625" y2="947.5625"/><text fill="#000000" font-family="sans-serif" font-size="13" lengthAdjust="spacing" textLength="217" x="1970.5" y="942.4966">&#1054;&#1087;&#1077;&#1088;&#1072;&#1090;&#1086;&#1088; &#1086;&#1089;&#1074;&#1086;&#1073;&#1086;&#1076;&#1080;&#1083;&#1089;&#1103; (&#1089;&#1083;&#1086;&#1090; K)</text><polygon fill="#181818" points="1313.5,979.6953,1303.5,983.6953,1313.5,987.6953,1309.5,983.6953" style="stroke:#181818;stroke-width:1.0;"/><line style="stroke:#181818;stroke-width:1.0;" x1="1307.5" x2="1952.5" y1="983.6953" y2="983.6953"/><text fill="#000000" font-family="sans-serif" font-size="13" lengthAdjust="spacing" textLength="460" x="1319.5" y="978.6294">&#1042;&#1099;&#1073;&#1088;&#1072;&#1090;&#1100; &#1086;&#1076;&#1085;&#1091; &#1079;&#1072;&#1103;&#1074;&#1082;&#1091; &#1089; &#1085;&#1072;&#1080;&#1074;&#1099;&#1089;&#1096;&#1080;&#1084; &#1087;&#1088;&#1080;&#1086;&#1088;&#1080;&#1090;&#1077;&#1090;&#1086;&#1084; &#1080;&#1089;&#1090;&#1086;&#1095;&#1085;&#1080;&#1082;&#1072; (&#1044;2&#1041;4)</text><polygon fill="#181818" points="1941.5,1008.8281,1951.5,1012.8281,1941.5,1016.8281,1945.5,1012.8281" style="stroke:#181818;stroke-width:1.0;"/><line style="stroke:#181818;stroke-width:1.0;stroke-dasharray:2.0,2.0;" x1="1302.5" x2="1947.5" y1="1012.8281" y2="1012.8281"/><text fill="#000000" font-family="sans-serif" font-size="13" lengthAdjust="spacing" textLength="375" x="1309.5" y="1007.7622">&#1047;&#1072;&#1103;&#1074;&#1082;&#1072; &#1074;&#1099;&#1073;&#1088;&#1072;&#1085;&#1072; (&#1090;&#1072;&#1088;&#1080;&#1092; Premium), &#1089;&#1083;&#1086;&#1090; M &#1086;&#1089;&#1074;&#1086;&#1073;&#1086;&#1078;&#1076;&#1105;&#1085;</text><polygon fill="#181818" points="2514.5,1037.9609,2524.5,1041.9609,2514.5,1045.9609,2518.5,1041.9609" style="stroke:#181818;stroke-width:1.0;"/><line style="stroke:#181818;stroke-width:1.0;" x1="1953.5" x2="2520.5" y1="1041.9609" y2="1041.9609"/><text fill="#000000" font-family="sans-serif" font-size="13" lengthAdjust="spacing" textLength="549" x="1960.5" y="1036.895">&#1053;&#1072;&#1079;&#1085;&#1072;&#1095;&#1077;&#1085;&#1080;&#1077; &#1079;&#1072;&#1103;&#1074;&#1082;&#1080; &#1086;&#1087;&#1077;&#1088;&#1072;&#1090;&#1086;&#1088;&#1091; K, &#1091;&#1082;&#1072;&#1079;&#1072;&#1090;&#1077;&#1083;&#1100; AGENT_PTR -&gt; &#1089;&#1083;&#1077;&#1076;&#1091;&#1102;&#1097;&#1080;&#1081; &#1086;&#1087;&#1077;&#1088;&#1072;&#1090;&#1086;&#1088;</text><path d="M2531,1054.9609 L2531,1079.9609 L2755,1079.9609 L2755,1064.9609 L2745,1054.9609 L2531,1054.9609 " fill="#FEFFDD" style="stroke:#181818;stroke-width:0.5;"/><path d="M2745,1054.9609 L2745,1064.9609 L2755,1064.9609 L2745,1054.9609 " fill="#FEFFDD" style="stroke:#181818;stroke-width:0.5;"/><text fill="#000000" font-family="sans-serif" font-size="13" lengthAdjust="spacing" textLength="203" x="2537" y="1072.0278">&#1055;&#1086;&#1089;&#1090;&#1072;&#1085;&#1086;&#1074;&#1082;&#1072; &#1085;&#1072; &#1087;&#1088;&#1080;&#1073;&#1086;&#1088; (&#1044;2&#1055;2)</text><line style="stroke:#181818;stroke-width:1.0;" x1="2526.5" x2="2568.5" y1="1106.2266" y2="1106.2266"/><line style="stroke:#181818;stroke-width:1.0;" x1="2568.5" x2="2568.5" y1="1106.2266" y2="1119.2266"/><line style="stroke:#181818;stroke-width:1.0;" x1="2527.5" x2="2568.5" y1="1119.2266" y2="1119.2266"/><polygon fill="#181818" points="2537.5,1115.2266,2527.5,1119.2266,2537.5,1123.2266,2533.5,1119.2266" style="stroke:#181818;stroke-width:1.0;"/><text fill="#000000" font-family="sans-serif" font-size="13" lengthAdjust="spacing" textLength="461" x="2533.5" y="1101.1606">&#1054;&#1073;&#1088;&#1072;&#1073;&#1086;&#1090;&#1082;&#1072; &#1079;&#1072;&#1103;&#1074;&#1082;&#1080; (&#1055;&#1047;1 &#8212; &#1101;&#1082;&#1089;&#1087;&#1086;&#1085;&#1077;&#1085;&#1094;&#1080;&#1072;&#1083;&#1100;&#1085;&#1099;&#1081; &#1079;&#1072;&#1082;&#1086;&#1085; &#1086;&#1073;&#1089;&#1083;&#1091;&#1078;&#1080;&#1074;&#1072;&#1085;&#1080;&#1103;)</text><polygon fill="#181818" points="1964.5,1144.3594,1954.5,1148.3594,1964.5,1152.3594,1960.5,1148.3594" style="stroke:#181818;stroke-width:1.0;"/><line style="stroke:#181818;stroke-width:1.0;stroke-dasharray:2.0,2.0;" x1="1958.5" x2="2525.5" y1="1148.3594" y2="1148.3594"/><text fill="#000000" font-family="sans-serif" font-size="13" lengthAdjust="spacing" textLength="288" x="1970.5" y="1143.2935">&#1047;&#1072;&#1103;&#1074;&#1082;&#1072; &#1086;&#1073;&#1088;&#1072;&#1073;&#1086;&#1090;&#1072;&#1085;&#1072;, &#1086;&#1087;&#1077;&#1088;&#1072;&#1090;&#1086;&#1088; K &#1089;&#1074;&#1086;&#1073;&#1086;&#1076;&#1077;&#1085;</text><!--SRC=[bLRTJXjN4Bu_Jt74bQqQ8b2la40YAke5AYA1t5MAB6T3h8BNjTUz1jmcLAQn74M2YyOaRx0usR1WRB_2EQ_G9-atS_RlU1VI8e7n-PcPxvkPxqorvhajoJ-xRgTLSvu_hhRhDPdyLDjojrLxBAhvWvrslU6qszR1tOA3EotdiDuvj2tkY9hRy5hk0ItjrMk_EDvJj-CvBSkrMHA_TfoEOnRDqIVfGdoKbx96Dzhj-dxZq6buFzJRpQfNUqN6SJBzAfhLbbUlrPlLXYTtEyscs_8szd4ZQvWNX6YudYFTts23-AWO35Ag2tsiJzHKlr4J5QfR5SgIkb23ilpdwBrKLohGnrYTOZUWCxgd0gbck81BV1mVL_f8-VfF5R2D6udrCVx1LpurWX_yu-DKg7-d1Mcoz4WcINWa8vgNE2Y-6U32IFbgBDKTZ7rLNtGtvqxtiHcIIvzEOFkpcagisx1yW-T2dQ_0GOaimFO4n-_O3m53uDTOPhGIPW86JRvUmqPOvj0k2GKC4nOAyQJ8bvhHlbGZMBtYmo0jLDSWL7T10LjTZI7BzPI7TKFDad0QBoJbJ8YrDNY54JZHNL0_ZdY6IOf_X5yJEQWOSKhMreIW_Ch5zQW4LwNwG6SP9OAbC2dsKZPLsIJvSN1bqN9UciA9gXaaVCI5pmPtp8_kMp6i4dZ0LdUqaUEo8kil2eYhaF5PZc4hhX8AycxfuLIPH9UPH8GlHDIRu8FxR9KP9V_gLk8FSOWyeNmcKG5XSSn53eVg_R8QglDbKq8pamfuD-nJlXTeLN8uOtscN-lkWgJR4WcZmYHY00MRVVdasUQppUSxUq_BGbGFFAa-pRaFkDmDDPHYNzrWXn1EGO-HZiLiPl- -vtGbGI6tSREGWnmKgv3GgQc9IXxDMOg6x6v_jmm_h3Ij-luhJxel7_OroZH4oZFoTj1sf1eaMw0tu6gQ4SEKQpLPBGh74AbFzO1KOmIFRoKNcBd-HPzLYlETKEvBBgMJOggjNEcU_YEvc5xBypo4NOxKOfSYuVBlivRTSFQuld0gZ0hveGAA6Hk2iIJQrEjvuielD9tQCRsaZw0EfBU0WSZwHbDl6LYikiokIUA4p2C4shrcDQLs2i77rDG-x0oirYt_zoAyHzWCZAcLmH1fFaKCWOavQPsANPl95zGePC78wj12HPvXUifWa-Sb4kvC4KKAcn2UFiXS8NIxnneRG1X6yrTPG0XGY4hs4UjP3DUtDTHV4EB0TPj6gvWMXcOk5AR4lCvp7Mpx5qX2Pg10-3mWV5iHyJ6BDFQ4rPcLSKLThYIwQ2dWlGAuyUFczbuaW9XGI0A7jcax0EI1EeMWNkkkuDc8Xvp5UUw_QQQKgDaM5QEHcNTO37BmTC-qnGJjUQ9x3xaj48LvhcZcIGH2IfFM8GQM47Vy-3dF5lRNICMv0dFK2pFUsOcqWheqNlbQKjXHOUh-pus5UQFvlXfJHosmA-gO_q5yiQaS_TI6yo1YMNX7evCnQNITkErcYXjVzB5vyKW2Ul1mIl9JC43Gb5Sqfd7z3hulMrfl0RCqT1I7n39KIgKjcPKoB-vFkNJYJPhSttqVk4j8LD-ayvtLoVC5sfLRXKzoqbzadkEXXw-htqBJU3gVCvHxiZE2KAJCyNXh9jjO1BYPe_98KUK5ri9KWezehj9_8QN7_4JnyywFb4-02cPpgcG00tZge97f8DqlYtihr4faNZdzIeuMkPNJ3q4lnxy0]--></g></svg>